<svg xmlns="http://www.w3.org/2000/svg" viewBox="0 0 120 120" width="120" height="120" role="img" aria-label="Logo Expediente Inteligente">
  <defs>
    <linearGradient id="g" x1="0" y1="0" x2="1" y2="1">
      <stop offset="0" stop-color="#1e88e5"/>
      <stop offset="1" stop-color="#0b3d91"/>
    </linearGradient>
  </defs>
  <rect x="4" y="4" width="112" height="112" rx="26" fill="url(#g)"/>
  <!-- folder / expediente -->
  <path d="M32 44h20l6 8h30a4 4 0 0 1 4 4v28a4 4 0 0 1-4 4H32a4 4 0 0 1-4-4V48a4 4 0 0 1 4-4z" fill="#ffffff" fill-opacity="0.95"/>
  <!-- spark / inteligencia -->
  <path d="M60 58l4 9 9 4-9 4-4 9-4-9-9-4 9-4z" fill="#22c55e"/>
</svg>
